{
  "accessors": [
    {
      "bufferView": 2,
      "componentType": 5126,
      "count": 16639,
      "max": [
        50.0,
        50.0,
        50.0
      ],
      "min": [
        -50.0,
        -50.0,
        -50.0
      ],
      "type": "VEC3"
    },
    {
      "bufferView": 2,
      "byteOffset": 199668,
      "componentType": 5126,
      "count": 16639,
      "max": [
        1.0,
        1.0,
        1.0
      ],
      "min": [
        -1.0,
        -1.0,
        -1.0
      ],
      "type": "VEC3"
    },
    {
      "bufferView": 1,
      "componentType": 5126,
      "count": 16639,
      "max": [
        0.9975000023841858,
        0.9974499940872192
      ],
      "min": [
        0.0024999999441206455,
        0.0024500000290572643
      ],
      "type": "VEC2"
    },
    {
      "bufferView": 1,
      "byteOffset": 133112,
      "componentType": 5126,
      "count": 16639,
      "max": [
        0.9975000023841858,
        0.9974499940872192
      ],
      "min": [
        0.0024999999441206455,
        0.0024500000290572643
      ],
      "type": "VEC2"
    },
    {
      "bufferView": 1,
      "byteOffset": 266224,
      "componentType": 5126,
      "count": 16639,
      "max": [
        0.9975000023841858,
        0.9974499940872192
      ],
      "min": [
        0.0024999999441206455,
        0.0024500000290572643
      ],
      "type": "VEC2"
    },
    {
      "bufferView": 0,
      "componentType": 5125,
      "count": 97536,
      "type": "SCALAR"
    }
  ],
  "asset": {
    "extras": {
      "author": "Recourse Design ltd. (https://sketchfab.com/RecourseDesign)",
      "license": "CC-BY-4.0 (http://creativecommons.org/licenses/by/4.0/)",
      "source": "https://sketchfab.com/3d-models/neptune-9263a7336bb245e893fef236e4f3874e",
      "title": "Neptune"
    },
    "generator": "Sketchfab-16.16.0",
    "version": "2.0"
  },
  "bufferViews": [
    {
      "buffer": 0,
      "byteLength": 390144,
      "name": "floatBufferViews",
      "target": 34963
    },
    {
      "buffer": 0,
      "byteLength": 399336,
      "byteOffset": 390144,
      "byteStride": 8,
      "name": "floatBufferViews",
      "target": 34962
    },
    {
      "buffer": 0,
      "byteLength": 399336,
      "byteOffset": 789480,
      "byteStride": 12,
      "name": "floatBufferViews",
      "target": 34962
    }
  ],
  "buffers": [
    {
      "byteLength": 1188816,
      "uri": "neptune.bin"
    }
  ],
  "extensionsUsed": [
    "KHR_materials_unlit"
  ],
  "images": [
    {
      "uri": "textures/Planet_baseColor.jpeg"
    }
  ],
  "materials": [
    {
      "doubleSided": true,
      "extensions": {
        "KHR_materials_unlit": {}
      },
      "name": "Planet",
      "pbrMetallicRoughness": {
        "baseColorTexture": {
          "index": 0
        },
        "metallicFactor": 0.0
      }
    }
  ],
  "meshes": [
    {
      "name": "Earth_Planet_0",
      "primitives": [
        {
          "attributes": {
            "NORMAL": 1,
            "POSITION": 0,
            "TEXCOORD_0": 2,
            "TEXCOORD_1": 3,
            "TEXCOORD_2": 4
          },
          "indices": 5,
          "material": 0,
          "mode": 4
        }
      ]
    }
  ],
  "nodes": [
    {
      "children": [
        1
      ],
      "matrix": [
        1.0,
        0.0,
        0.0,
        0.0,
        0.0,
        2.220446049250313e-16,
        -1.0,
        0.0,
        0.0,
        1.0,
        2.220446049250313e-16,
        0.0,
        0.0,
        0.0,
        0.0,
        1.0
      ],
      "name": "Sketchfab_model"
    },
    {
      "children": [
        2
      ],
      "matrix": [
        1.0,
        0.0,
        0.0,
        0.0,
        0.0,
        0.0,
        1.0,
        0.0,
        0.0,
        -1.0,
        0.0,
        0.0,
        0.0,
        0.0,
        0.0,
        1.0
      ],
      "name": "9ff912047c4949b69ec2fe827bc30001.fbx"
    },
    {
      "children": [
        3
      ],
      "name": "RootNode"
    },
    {
      "children": [
        4
      ],
      "name": "Earth"
    },
    {
      "mesh": 0,
      "name": "Earth_Planet_0"
    }
  ],
  "samplers": [
    {
      "magFilter": 9729,
      "minFilter": 9987,
      "wrapS": 10497,
      "wrapT": 10497
    }
  ],
  "scene": 0,
  "scenes": [
    {
      "name": "Sketchfab_Scene",
      "nodes": [
        0
      ]
    }
  ],
  "textures": [
    {
      "sampler": 0,
      "source": 0
    }
  ]
}
